<svg xmlns="http://www.w3.org/2000/svg" viewBox="0 0 6.73 16.68"><title>person</title><g id="Layer_2" data-name="Layer 2"><g id="Layer_1-2" data-name="Layer 1"><path d="M5.14,16.68H1.59c-.08-1.43-.2-2.84-.23-4.25A1,1,0,0,0,.6,11.34,1.07,1.07,0,0,1,0,10.58,27.71,27.71,0,0,1,0,7.71,3.32,3.32,0,0,1,3.4,4.46,3.32,3.32,0,0,1,6.7,7.68c0,.77,0,1.55,0,2.32s0,1.33-.89,1.53c-.19,0-.4.5-.42.77C5.29,13.75,5.23,15.19,5.14,16.68Z"/><path d="M5.22,1.85A1.88,1.88,0,0,1,3.41,3.7,1.87,1.87,0,0,1,1.51,1.84a1.85,1.85,0,0,1,3.7,0Z"/></g></g></svg>